<?xml version="1.0" encoding="UTF-8" standalone="no"?>
<!-- Created with Inkscape (http://www.inkscape.org/) -->

<svg
   xmlns:dc="http://purl.org/dc/elements/1.1/"
   xmlns:cc="http://creativecommons.org/ns#"
   xmlns:rdf="http://www.w3.org/1999/02/22-rdf-syntax-ns#"
   xmlns:svg="http://www.w3.org/2000/svg"
   xmlns="http://www.w3.org/2000/svg"
   xmlns:sodipodi="http://sodipodi.sourceforge.net/DTD/sodipodi-0.dtd"
   xmlns:inkscape="http://www.inkscape.org/namespaces/inkscape"
   width="210mm"
   height="210mm"
   viewBox="0 0 210 210"
   version="1.1"
   id="svg8"
   inkscape:version="0.92.1 r15371"
   sodipodi:docname="logo_svg.svg">
  <defs
     id="defs2" />
  <sodipodi:namedview
     id="base"
     pagecolor="#ffffff"
     bordercolor="#666666"
     borderopacity="1.0"
     inkscape:pageopacity="0.0"
     inkscape:pageshadow="2"
     inkscape:zoom="0.70710678"
     inkscape:cx="117.38884"
     inkscape:cy="478.9486"
     inkscape:document-units="mm"
     inkscape:current-layer="layer2"
     showgrid="false"
     showguides="true"
     inkscape:guide-bbox="true"
     inkscape:window-width="1920"
     inkscape:window-height="1018"
     inkscape:window-x="1912"
     inkscape:window-y="-8"
     inkscape:window-maximized="1" />
  <metadata
     id="metadata5">
    <rdf:RDF>
      <cc:Work
         rdf:about="">
        <dc:format>image/svg+xml</dc:format>
        <dc:type
           rdf:resource="http://purl.org/dc/dcmitype/StillImage" />
        <dc:title></dc:title>
      </cc:Work>
    </rdf:RDF>
  </metadata>
  <g
     inkscape:groupmode="layer"
     id="layer2"
     inkscape:label="Layer 2"
     style="display:inline">
    <path
       id="path6714"
       style="fill:none;stroke:#000000;stroke-width:3.89400005;stroke-linecap:round;stroke-linejoin:round;stroke-miterlimit:4;stroke-dasharray:none;stroke-dashoffset:38.94000244;stroke-opacity:1;paint-order:normal"
       d="M 168.32255,60.143037 191.07923,154.555 190.95737,55.231408 Z M 104.87528,5.6746777 41.675102,60.257499 168.32255,60.143037 Z M 191.07923,154.555 190.95737,55.231408 Z M 41.675094,60.257499 104.87528,5.6746277 18.920774,55.444178 41.675094,60.257499 168.32255,60.143038 104.87528,5.6746777 190.95737,55.231408 168.32255,60.143038 191.07923,154.555 105.0987,169.88115 19.042604,154.77061 Z m -22.63249,94.513111 22.63249,-94.513111 -22.75432,-4.813321 z m 86.056096,15.11054 85.98053,-15.32615 -85.95449,49.76951 z m -86.056096,-15.11054 86.056096,15.11054 0.026,34.44336 z M 105.0987,169.88115 41.675104,60.257499 168.32255,60.143038 v 0 z" />
  </g>
</svg>
